<svg width="0" height="0"><symbol xmlns="http://www.w3.org/2000/svg" id="arrow-down" fill="none" stroke="currentColor" stroke-width="1.5" viewBox="0 0 24 24"><path stroke-linecap="round" stroke-linejoin="round" d="M19.5 13.5 12 21m0 0-7.5-7.5M12 21V3"/></symbol><symbol xmlns="http://www.w3.org/2000/svg" id="arrow-left" fill="none" stroke="currentColor" stroke-width="1.5" viewBox="0 0 24 24"><path stroke-linecap="round" stroke-linejoin="round" d="M10.5 19.5 3 12m0 0 7.5-7.5M3 12h18"/></symbol><symbol xmlns="http://www.w3.org/2000/svg" id="arrow-right" fill="none" stroke="currentColor" stroke-width="1.5" viewBox="0 0 24 24"><path stroke-linecap="round" stroke-linejoin="round" d="M13.5 4.5 21 12m0 0-7.5 7.5M21 12H3"/></symbol><symbol xmlns="http://www.w3.org/2000/svg" xml:space="preserve" id="artificial-intelligence" viewBox="0 0 119.25 122.88"><path d="M86.28 104.11c-.47-.19-.98-.3-1.52-.3s-1.05.11-1.52.3c-.47.2-.9.48-1.25.84l-.03.02c-.2.2-.39.43-.54.68-.08.13-.16.27-.23.42h-6.31v-5.48a13.64 13.64 0 0 1-3.54 1.1v6.14c0 .49.2.93.52 1.25.32.32.76.52 1.25.52h8.14a3.869 3.869 0 0 0 .69.95l.03.03c.36.36.8.66 1.29.86.47.19.98.3 1.52.3.52 0 1.03-.1 1.49-.29l.03-.01a3.942 3.942 0 0 0 2.15-2.15c.19-.47.3-.98.3-1.52 0-.53-.11-1.04-.3-1.52-.2-.49-.5-.93-.86-1.29-.38-.35-.82-.65-1.31-.85zm-28.85-37.5h-7.4l-1.06 3.48h-6.66l7.95-21.12h7.14l7.92 21.12h-6.83l-1.06-3.48zm-1.38-4.58-2.31-7.59-2.32 7.59h4.63zm11.11-13.07h6.55v21.12h-6.55V48.96zm-4.99-21.65c-1.08.78-2.08 1.83-2.95 3.19-.04.07-.1.13-.17.17-.27.17-.63.09-.8-.17-.87-1.36-1.87-2.41-2.95-3.19a9.449 9.449 0 0 0-3.7-1.63h-.02a10.07 10.07 0 0 0-3.79-.04c-1.31.23-2.58.71-3.72 1.37a12 12 0 0 0-3 2.49c-.82.95-1.48 2.04-1.91 3.21-.07.18-.13.37-.19.57-.05.18-.11.38-.15.58-.05.26-.27.45-.55.46-1.34.2-2.67.69-3.91 1.42-1.26.75-2.43 1.77-3.44 2.99-1 1.22-1.84 2.66-2.44 4.26-.56 1.5-.9 3.15-.97 4.9-.01.23-.01.45-.01.68 0 .21.01.43.01.66.01.19-.07.39-.24.51-.82.59-1.56 1.2-2.22 1.83-.67.65-1.26 1.32-1.77 2.01-.83 1.13-1.44 2.31-1.85 3.5-.43 1.24-.64 2.51-.66 3.76-.01 1.2.15 2.39.49 3.54.34 1.17.86 2.31 1.53 3.37.38.61.81 1.21 1.28 1.77.48.57 1 1.11 1.56 1.62.14.13.22.34.18.54-.16.76-.24 1.51-.27 2.25-.02.76.02 1.51.12 2.24.19 1.34.58 2.62 1.13 3.8.58 1.26 1.34 2.41 2.22 3.42.85.99 1.82 1.85 2.86 2.56 1.05.72 2.16 1.28 3.3 1.67.51.17 1.03.31 1.56.41.5.1 1 .16 1.49.18.27-.01.52.18.58.46a9.95 9.95 0 0 0 1.4 3.32c.69 1.06 1.56 2 2.56 2.78 1.26.98 2.74 1.72 4.3 2.11 1.47.37 3.02.44 4.54.12 1.36-.28 2.68-.86 3.9-1.78 1.12-.85 2.16-1.99 3.03-3.47.05-.09.13-.16.23-.21.28-.15.63-.04.78.24.72 1.34 1.6 2.41 2.58 3.22 1.06.87 2.23 1.46 3.46 1.8 1.57.43 3.21.43 4.8.1 1.7-.35 3.34-1.09 4.75-2.11 1.11-.79 2.09-1.76 2.87-2.86.74-1.03 1.29-2.18 1.61-3.39.04-.23.22-.43.47-.47 1.47-.26 2.92-.87 4.25-1.78s2.54-2.11 3.53-3.54c.91-1.32 1.64-2.84 2.11-4.5.44-1.55.65-3.23.58-5-.02-.2.07-.4.25-.52.86-.59 1.62-1.21 2.3-1.84.69-.66 1.3-1.34 1.82-2.05.8-1.08 1.39-2.2 1.8-3.35.42-1.19.64-2.4.68-3.61.03-1.17-.11-2.33-.41-3.47-.3-1.15-.77-2.26-1.38-3.31l-.02-.02c-.4-.69-.87-1.35-1.39-1.99-.52-.64-1.11-1.24-1.74-1.81a.587.587 0 0 1-.19-.55 13.34 13.34 0 0 0 .2-4.1c-.15-1.39-.52-2.71-1.06-3.94-.57-1.3-1.33-2.5-2.22-3.55-.86-1.02-1.85-1.91-2.91-2.65s-2.19-1.32-3.34-1.71l-.03-.01c-.61-.21-1.23-.36-1.84-.46h-.02c-.6-.1-1.2-.14-1.79-.13a.58.58 0 0 1-.6-.44c-.1-.41-.23-.81-.38-1.2-.16-.4-.34-.79-.55-1.18-.54-1-1.25-1.92-2.08-2.71-.85-.81-1.82-1.5-2.86-2.03-1.07-.54-2.24-.92-3.44-1.09a10.07 10.07 0 0 0-3.46.1c-1.29.31-2.56.84-3.72 1.68zm16.35 11.26c.07-.22.27-.39.52-.41.42-.03.85-.01 1.28.06.44.07.88.18 1.32.33.83.28 1.66.71 2.43 1.25.76.53 1.48 1.18 2.1 1.92l.01.02c.65.77 1.2 1.63 1.61 2.57.39.88.65 1.82.76 2.81a9.377 9.377 0 0 1-.46 4.04l-.01.04a1.95 1.95 0 0 0 .77 2.25l.03.02c.7.52 1.32 1.09 1.86 1.69.56.61 1.04 1.27 1.44 1.95.44.75.78 1.53.99 2.33.22.79.32 1.59.29 2.38-.02.82-.18 1.64-.47 2.45-.28.77-.69 1.53-1.23 2.27l-.01.01c-.49.67-1.11 1.33-1.84 1.96-.7.6-1.51 1.17-2.44 1.72l-.03.02c-.37.21-.64.53-.8.9-.16.37-.21.78-.13 1.18l.01.08c.19 1.53.1 2.99-.21 4.32a11.27 11.27 0 0 1-1.7 3.86c-.59.85-1.27 1.58-2 2.16a7.61 7.61 0 0 1-2.39 1.31h-.01c-.3.09-.63-.08-.72-.38-1.13-3.69-3.08-4.88-6.38-6.58l-.07-.04c-.46-.22-.96-.24-1.41-.1-.45.14-.84.45-1.07.9l-.03.06c-.22.46-.24.96-.1 1.41.15.45.47.85.93 1.09 2.76 1.41 4.8 2.48 4.77 5.94-.01 1.03-.33 2.03-.87 2.93-.57.95-1.39 1.8-2.34 2.49-.97.7-2.06 1.21-3.18 1.46-1.07.25-2.17.26-3.2-.02-1.74-.48-2.87-1.64-3.63-3.05-.72-1.34-1.12-2.9-1.41-4.32-.02-.05-.02-.11-.02-.16 0-.72-.56-1.19-1.29-1.4-.32-.1-.67-.14-1.01-.14-.35 0-.69.05-1.01.14-.72.22-1.28.69-1.28 1.4 0 .05-.01.09-.02.14-.56 2.22-1.37 3.89-2.32 5.09-1.11 1.41-2.41 2.18-3.75 2.46-.98.2-1.99.15-2.95-.1a8.149 8.149 0 0 1-2.81-1.4c-.83-.65-1.52-1.44-2-2.33-.46-.85-.73-1.79-.73-2.75 0-3.64 2.2-4.86 5.11-6.35.46-.24.78-.64.93-1.09.15-.46.12-.97-.11-1.44-.24-.46-.64-.78-1.09-.93-.45-.14-.95-.12-1.41.1l-.03.01c-3.43 1.75-5.48 3.03-6.71 6.84-.07.25-.31.44-.58.43-.34-.01-.68-.05-1.03-.12-.34-.07-.68-.16-1-.28-.81-.28-1.62-.69-2.38-1.21-.75-.52-1.45-1.14-2.07-1.86-.64-.74-1.19-1.57-1.61-2.48a9.67 9.67 0 0 1-.82-2.71v-.02c-.1-.7-.12-1.43-.04-2.18.07-.7.22-1.43.47-2.15l.01-.03c.14-.41.13-.84.01-1.22l-.01-.02c-.13-.4-.39-.75-.75-1l-.02-.02c-.64-.48-1.22-.99-1.73-1.55-.52-.56-.98-1.16-1.36-1.78-.46-.75-.82-1.55-1.06-2.37-.23-.8-.35-1.62-.34-2.46.01-.85.16-1.72.46-2.57.29-.81.71-1.62 1.29-2.41.49-.67 1.09-1.33 1.81-1.96.69-.61 1.47-1.19 2.37-1.74.33-.2.57-.48.73-.8l.01-.03c.16-.33.22-.7.17-1.07-.01-.04-.01-.08-.01-.12v-.02a12.593 12.593 0 0 1-.11-2.14c.05-1.31.3-2.54.71-3.65.44-1.19 1.06-2.26 1.8-3.17.61-.75 1.31-1.38 2.04-1.87.73-.49 1.5-.84 2.29-1.04.3-.09.63.08.72.38.62 1.96 1.4 3.19 2.89 4.58l.06.05c.37.34.85.5 1.32.48.47-.02.93-.21 1.27-.58l.03-.04c.34-.37.5-.85.48-1.32a1.9 1.9 0 0 0-.6-1.3c-1.2-1.11-1.47-1.8-1.83-2.92-.42-1.29-.35-2.55.06-3.67.28-.77.72-1.49 1.28-2.12.55-.63 1.22-1.19 1.96-1.62l.03-.02c.76-.44 1.58-.76 2.43-.92.81-.15 1.64-.16 2.45.01 1.14.24 2.26.84 3.25 1.88.87.91 1.64 2.17 2.25 3.83l.01.02c.21.65.89 1.03 1.69 1.18.36.07.74.09 1.11.07h.01c.38-.02.74-.09 1.08-.2.6-.2 1.07-.52 1.18-.93v-.23c0-1.16.69-2.39 1.64-3.4 1.04-1.1 2.43-1.97 3.6-2.21.74-.15 1.49-.16 2.22-.05.76.12 1.5.36 2.2.71l.06.02a8.2 8.2 0 0 1 1.93 1.36c.56.54 1.04 1.15 1.4 1.82.57 1.05.83 2.25.65 3.52-.16 1.11-.2 1.81-1.13 2.92l-.01.01c-.33.39-.47.88-.43 1.36.04.46.25.91.62 1.23l.06.05c.39.32.87.45 1.34.41.46-.04.91-.25 1.23-.62l.05-.07c.96-1.14 1.27-1.98 1.71-3.42zm21.96 48.94c-.19-.47-.3-.98-.3-1.52s.11-1.05.3-1.52c.2-.47.48-.9.84-1.25l.02-.03c.2-.2.43-.39.68-.54.13-.08.27-.16.42-.23v-6.31h-7.76c.01-.41.01-.82-.01-1.24-.02-.23.08-.46.28-.59.8-.55 1.53-1.12 2.19-1.71h7.06c.49 0 .93.2 1.25.52.32.32.52.76.52 1.25v8.14a3.869 3.869 0 0 1 .95.69l.03.03c.36.36.66.8.86 1.29.19.47.3.98.3 1.52 0 .52-.1 1.02-.29 1.49l-.01.03a3.942 3.942 0 0 1-2.15 2.15c-.47.19-.98.3-1.52.3-.53 0-1.04-.11-1.52-.3-.49-.2-.93-.5-1.29-.86-.35-.38-.65-.82-.85-1.31zm11.24-20.25h-10.55c.18-.39.34-.78.48-1.18.28-.78.48-1.57.6-2.36h9.47c.07-.13.14-.26.22-.39a3.89 3.89 0 0 1 1.81-1.51c.47-.19.98-.3 1.52-.3.52 0 1.02.1 1.49.29l.03.01a3.942 3.942 0 0 1 2.15 2.15c.19.47.3.98.3 1.52 0 .53-.11 1.04-.3 1.52a3.942 3.942 0 0 1-2.15 2.15c-.47.19-.98.3-1.52.3-.52 0-1.02-.1-1.49-.29l-.03-.01c-.49-.2-.92-.5-1.29-.86-.19-.19-.36-.4-.51-.63l-.02-.03c-.07-.12-.14-.25-.21-.38zm3.36-9.68h-13.27c-.34-1.12-.82-2.21-1.42-3.25l-.02-.03c-.05-.09-.1-.17-.15-.26h13.1V42.49a4.063 4.063 0 0 1-.85-.65c-.36-.36-.66-.8-.86-1.29-.19-.47-.3-.98-.3-1.52 0-.53.11-1.05.3-1.52a3.942 3.942 0 0 1 2.15-2.15c.47-.19.98-.3 1.52-.3.53 0 1.04.11 1.52.3a3.942 3.942 0 0 1 2.15 2.15c.19.47.3.98.3 1.52 0 .52-.1 1.02-.29 1.49l-.01.03c-.2.49-.5.92-.86 1.29-.22.22-.48.42-.75.59-.15.09-.32.18-.48.25V55.8c0 .49-.2.93-.52 1.25-.33.33-.77.53-1.26.53zm-13.87-8.54h-4.52c.12-.66.19-1.32.22-1.98.02-.53.02-1.05-.01-1.56h2.54v-5.22c-.14-.07-.27-.14-.4-.23-.24-.15-.46-.33-.67-.54-.36-.36-.66-.8-.86-1.29-.19-.47-.3-.98-.3-1.51s.11-1.04.3-1.52c.2-.47.48-.9.83-1.26l.03-.03c.36-.36.8-.66 1.29-.86.47-.19.98-.3 1.52-.3s1.05.11 1.52.3c.47.2.9.48 1.26.84l.03.02c.36.36.65.78.85 1.26l.01.03c.19.47.3.98.3 1.52 0 .53-.11 1.05-.3 1.52-.2.47-.48.9-.83 1.26l-.03.03c-.19.19-.4.36-.64.52-.12.08-.24.15-.37.21v7.02a1.778 1.778 0 0 1-1.77 1.77zM31.13 18.77c.47.19.98.3 1.52.3s1.05-.11 1.52-.3c.47-.2.9-.48 1.25-.84l.03-.02c.2-.2.39-.43.54-.68.08-.13.16-.27.23-.42h6.31v5.45c1.11-.59 2.31-1.02 3.54-1.27v-5.95c0-.49-.2-.93-.52-1.25a1.76 1.76 0 0 0-1.25-.52h-8.14a3.869 3.869 0 0 0-.69-.95l-.03-.03c-.36-.36-.8-.66-1.29-.86-.47-.19-.98-.3-1.52-.3-.52 0-1.03.1-1.49.29l-.03.01a3.942 3.942 0 0 0-2.15 2.15c-.19.47-.3.98-.3 1.52 0 .53.11 1.04.3 1.52.2.49.5.93.86 1.29.39.36.82.66 1.31.86zM51.39 7.53v13.66c1.18.34 2.33.88 3.41 1.66l.12.09c0-.03.01-.06.01-.09V7.53c.13-.07.26-.14.39-.22.24-.15.46-.33.65-.52.36-.37.66-.8.86-1.29.19-.47.3-.98.3-1.52 0-.52-.1-1.02-.29-1.49l-.01-.03A3.942 3.942 0 0 0 54.68.31c-.47-.19-.98-.3-1.52-.3-.53 0-1.04.11-1.52.3a3.942 3.942 0 0 0-2.15 2.15c-.19.47-.3.98-.3 1.52 0 .52.1 1.02.29 1.49l.01.03c.2.49.5.92.86 1.29.19.19.4.36.63.51l.02.01c.13.08.25.15.39.22zm9.67-3.36v19.98c.48-.49.99-.92 1.51-1.3a10.6 10.6 0 0 1 2.03-1.16V5.93h11.55a4.063 4.063 0 0 0 .65.85c.36.36.8.66 1.29.86.47.19.98.3 1.52.3.53 0 1.05-.11 1.52-.3a3.942 3.942 0 0 0 2.15-2.15c.19-.47.3-.98.3-1.52 0-.53-.11-1.04-.3-1.52-.2-.49-.5-.93-.86-1.29C82.04.8 81.6.5 81.11.3a3.954 3.954 0 0 0-3-.01l-.03.01c-.49.2-.92.5-1.29.86-.22.22-.42.48-.59.75-.09.15-.18.32-.25.48H62.83c-.49 0-.93.2-1.25.52-.32.33-.52.77-.52 1.26zm8.54 13.87v2.74c.36.02.73.05 1.09.11.84.12 1.66.33 2.45.62v-1.69h5.22c.07.14.14.27.23.4.15.24.33.46.54.67.36.36.8.66 1.29.86.47.19.98.3 1.51.3s1.04-.11 1.52-.3c.47-.2.9-.48 1.26-.83l.03-.03c.36-.36.66-.8.86-1.29.19-.47.3-.98.3-1.52s-.11-1.05-.3-1.52c-.2-.47-.48-.9-.84-1.26l-.02-.03c-.36-.36-.78-.65-1.26-.85l-.03-.01c-.47-.19-.98-.3-1.52-.3-.53 0-1.05.11-1.52.3-.47.2-.9.48-1.26.83l-.03.03c-.19.19-.36.4-.52.64-.08.12-.15.24-.21.37h-7.02c-.49 0-.93.2-1.25.52-.32.31-.52.75-.52 1.24zM18.77 35.2c.19.47.3.98.3 1.52s-.11 1.05-.3 1.52c-.2.47-.48.9-.84 1.25l-.02.03c-.2.2-.43.39-.68.54-.13.08-.27.16-.42.23v6.31h6.55v.31c0 .24.01.49.02.75a.65.65 0 0 1-.27.58c-.86.61-1.63 1.25-2.33 1.9h-5.72c-.49 0-.93-.2-1.25-.52a1.76 1.76 0 0 1-.52-1.25v-8.14a3.869 3.869 0 0 1-.95-.69l-.03-.03c-.36-.36-.66-.8-.86-1.29-.19-.47-.3-.98-.3-1.52 0-.52.1-1.02.29-1.49l.01-.03a3.942 3.942 0 0 1 2.15-2.15c.47-.19.98-.3 1.52-.3.53 0 1.04.11 1.52.3.49.2.93.5 1.29.86.34.38.64.82.84 1.31zM7.53 55.45h9.4c-.16.36-.3.73-.43 1.09-.28.81-.48 1.62-.6 2.44H7.53c-.07.13-.14.26-.22.39a3.89 3.89 0 0 1-1.81 1.51c-.47.19-.98.3-1.52.3-.52 0-1.02-.1-1.49-.29l-.03-.01a3.942 3.942 0 0 1-2.15-2.15c-.19-.47-.3-.98-.3-1.52 0-.53.11-1.04.3-1.52a3.942 3.942 0 0 1 2.15-2.15c.47-.19.98-.3 1.52-.3.52 0 1.02.1 1.49.29l.03.01c.49.2.92.5 1.29.86.19.19.36.4.51.63l.02.03.21.39zm-3.36 9.68H16.4c.38 1.21.93 2.38 1.63 3.49v.01l.02.04H5.93v11.55a4.063 4.063 0 0 1 .85.65c.36.36.66.8.86 1.29.19.47.3.98.3 1.52 0 .53-.11 1.05-.3 1.52a3.942 3.942 0 0 1-2.15 2.15c-.47.19-.98.3-1.52.3-.53 0-1.04-.11-1.52-.3-.49-.2-.93-.5-1.29-.86C.8 86.1.5 85.66.3 85.18c-.19-.47-.3-.98-.3-1.52 0-.52.1-1.02.29-1.49l.01-.03c.2-.49.5-.92.86-1.29.22-.22.48-.42.75-.59.15-.09.32-.18.48-.25V66.89c0-.49.2-.93.52-1.25.33-.31.77-.51 1.26-.51zm13.87 8.54h3.3c-.11.66-.17 1.31-.19 1.95-.02.54-.01 1.07.03 1.59h-1.37v5.22c.14.07.27.14.4.23.24.15.46.33.67.54.36.36.66.8.86 1.29.19.47.3.98.3 1.52s-.11 1.04-.3 1.52c-.2.47-.48.9-.83 1.26l-.03.03c-.36.36-.8.66-1.29.86-.47.19-.98.3-1.52.3s-1.05-.11-1.52-.3c-.47-.2-.9-.48-1.26-.84l-.03-.02c-.36-.36-.65-.78-.85-1.26l-.01-.03c-.19-.47-.3-.98-.3-1.52 0-.53.11-1.05.3-1.52.2-.47.48-.9.83-1.26l.03-.03c.19-.19.4-.36.64-.52.12-.08.24-.15.37-.21v-7.02c0-.49.2-.93.52-1.25.32-.34.76-.53 1.25-.53zm47.99 41.68v-13.99c-1.25-.39-2.43-1.02-3.51-1.91l-.02-.02v15.93c-.13.07-.26.14-.39.22-.24.15-.46.33-.65.52-.36.37-.66.8-.86 1.29-.19.47-.3.98-.3 1.52 0 .52.1 1.02.29 1.49l.01.03a3.942 3.942 0 0 0 2.15 2.15c.47.19.98.3 1.52.3.53 0 1.04-.11 1.52-.3a3.942 3.942 0 0 0 2.15-2.15c.19-.47.3-.98.3-1.52 0-.52-.1-1.02-.29-1.49l-.01-.03c-.2-.49-.5-.92-.86-1.29-.19-.19-.4-.36-.63-.51l-.03-.02c-.13-.08-.26-.15-.39-.22zm-9.68 3.36V98.55c-.42.43-.86.81-1.32 1.16-.71.54-1.45.97-2.22 1.31v15.94H41.26a4.063 4.063 0 0 0-.65-.85c-.36-.36-.8-.66-1.29-.86-.47-.19-.98-.3-1.52-.3-.53 0-1.05.11-1.52.3a3.942 3.942 0 0 0-2.15 2.15c-.19.47-.3.98-.3 1.52 0 .53.11 1.04.3 1.52a3.942 3.942 0 0 0 2.15 2.15c.47.19.98.3 1.52.3.52 0 1.02-.1 1.49-.29l.03-.01c.49-.2.92-.5 1.29-.86.22-.22.42-.48.59-.75.09-.15.18-.32.25-.48h13.12c.49 0 .93-.2 1.25-.52.33-.34.53-.78.53-1.27zm-8.54-13.87v-2.91c-.78-.04-1.56-.16-2.32-.35-.41-.1-.82-.23-1.22-.37v1.87h-5.22c-.07-.14-.14-.27-.23-.4-.15-.24-.33-.46-.54-.67-.36-.36-.8-.66-1.29-.86-.47-.19-.98-.3-1.51-.3s-1.04.11-1.52.3c-.47.2-.9.48-1.26.83l-.03.02c-.36.36-.66.8-.86 1.29-.19.47-.3.98-.3 1.52s.11 1.05.3 1.52c.2.47.48.9.84 1.26l.02.03c.36.36.78.65 1.26.85l.03.01c.47.19.98.3 1.52.3.53 0 1.04-.11 1.52-.3.47-.2.9-.48 1.26-.83l.03-.03c.19-.19.36-.4.52-.64.08-.12.15-.24.21-.37h7.02c.49 0 .93-.2 1.25-.52.32-.32.52-.76.52-1.25z"/></symbol><symbol xmlns="http://www.w3.org/2000/svg" id="calendar" fill="none" stroke="currentColor" stroke-width="1.5" viewBox="0 0 24 24"><path stroke-linecap="round" stroke-linejoin="round" d="M6.75 3v2.25M17.25 3v2.25M3 18.75V7.5a2.25 2.25 0 0 1 2.25-2.25h13.5A2.25 2.25 0 0 1 21 7.5v11.25m-18 0A2.25 2.25 0 0 0 5.25 21h13.5A2.25 2.25 0 0 0 21 18.75m-18 0v-7.5A2.25 2.25 0 0 1 5.25 9h13.5A2.25 2.25 0 0 1 21 11.25v7.5m-9-6h.008v.008H12v-.008zM12 15h.008v.008H12V15zm0 2.25h.008v.008H12v-.008zM9.75 15h.008v.008H9.75V15zm0 2.25h.008v.008H9.75v-.008zM7.5 15h.008v.008H7.5V15zm0 2.25h.008v.008H7.5v-.008zm6.75-4.5h.008v.008h-.008v-.008zm0 2.25h.008v.008h-.008V15zm0 2.25h.008v.008h-.008v-.008zm2.25-4.5h.008v.008H16.5v-.008zm0 2.25h.008v.008H16.5V15z"/></symbol><symbol xmlns="http://www.w3.org/2000/svg" id="chat-bubble" fill="none" stroke="currentColor" stroke-width="1.5" viewBox="0 0 24 24"><path stroke-linecap="round" stroke-linejoin="round" d="M8.625 12a.375.375 0 1 1-.75 0 .375.375 0 0 1 .75 0Zm0 0H8.25m4.125 0a.375.375 0 1 1-.75 0 .375.375 0 0 1 .75 0Zm0 0H12m4.125 0a.375.375 0 1 1-.75 0 .375.375 0 0 1 .75 0Zm0 0h-.375M21 12c0 4.556-4.03 8.25-9 8.25a9.764 9.764 0 0 1-2.555-.337A5.972 5.972 0 0 1 5.41 20.97a5.969 5.969 0 0 1-.474-.065 4.48 4.48 0 0 0 .978-2.025c.09-.457-.133-.901-.467-1.226C3.93 16.178 3 14.189 3 12c0-4.556 4.03-8.25 9-8.25s9 3.694 9 8.25Z"/></symbol><symbol xmlns="http://www.w3.org/2000/svg" id="check-circle" fill="none" stroke="currentColor" stroke-width="1.5" viewBox="0 0 24 24"><path stroke-linecap="round" stroke-linejoin="round" d="M9 12.75 11.25 15 15 9.75M21 12a9 9 0 1 1-18 0 9 9 0 0 1 18 0Z"/></symbol><symbol xmlns="http://www.w3.org/2000/svg" id="chevron-down" fill="none" stroke="currentColor" stroke-width="1.5" viewBox="0 0 24 24"><path stroke-linecap="round" stroke-linejoin="round" d="m19.5 8.25-7.5 7.5-7.5-7.5"/></symbol><symbol xmlns="http://www.w3.org/2000/svg" id="clock" fill="none" stroke="currentColor" stroke-width="1.5" viewBox="0 0 24 24"><path stroke-linecap="round" stroke-linejoin="round" d="M12 6v6h4.5m4.5 0a9 9 0 1 1-18 0 9 9 0 0 1 18 0z"/></symbol><symbol xmlns="http://www.w3.org/2000/svg" id="copied-to-clipboard" fill="none" stroke="currentColor" stroke-width="1.5" viewBox="0 0 24 24"><path stroke-linecap="round" stroke-linejoin="round" d="M11.35 3.836c-.065.21-.1.433-.1.664 0 .414.336.75.75.75h4.5a.75.75 0 0 0 .75-.75 2.25 2.25 0 0 0-.1-.664m-5.8 0A2.251 2.251 0 0 1 13.5 2.25H15a2.25 2.25 0 0 1 2.15 1.586m-5.8 0c-.376.023-.75.05-1.124.08C9.095 4.01 8.25 4.973 8.25 6.108V8.25m8.9-4.414c.376.023.75.05 1.124.08 1.131.094 1.976 1.057 1.976 2.192V16.5A2.25 2.25 0 0 1 18 18.75h-2.25m-7.5-10.5H4.875c-.621 0-1.125.504-1.125 1.125v11.25c0 .621.504 1.125 1.125 1.125h9.75c.621 0 1.125-.504 1.125-1.125V18.75m-7.5-10.5h6.375c.621 0 1.125.504 1.125 1.125v9.375m-8.25-3 1.5 1.5 3-3.75"/></symbol><symbol xmlns="http://www.w3.org/2000/svg" id="copy-to-clipboard" fill="none" stroke="currentColor" stroke-width="1.5" viewBox="0 0 24 24"><path stroke-linecap="round" stroke-linejoin="round" d="M9 12h3.75M9 15h3.75M9 18h3.75m3 .75H18a2.25 2.25 0 0 0 2.25-2.25V6.108c0-1.135-.845-2.098-1.976-2.192a48.424 48.424 0 0 0-1.123-.08m-5.801 0c-.065.21-.1.433-.1.664 0 .414.336.75.75.75h4.5a.75.75 0 0 0 .75-.75 2.25 2.25 0 0 0-.1-.664m-5.8 0A2.251 2.251 0 0 1 13.5 2.25H15a2.25 2.25 0 0 1 2.15 1.586m-5.8 0c-.376.023-.75.05-1.124.08C9.095 4.01 8.25 4.973 8.25 6.108V8.25m0 0H4.875c-.621 0-1.125.504-1.125 1.125v11.25c0 .621.504 1.125 1.125 1.125h9.75c.621 0 1.125-.504 1.125-1.125V9.375c0-.621-.504-1.125-1.125-1.125H8.25ZM6.75 12h.008v.008H6.75V12Zm0 3h.008v.008H6.75V15Zm0 3h.008v.008H6.75V18Z"/></symbol><symbol xmlns="http://www.w3.org/2000/svg" id="currency-dollar" fill="none" stroke="currentColor" stroke-width="1.5" viewBox="0 0 24 24"><path stroke-linecap="round" stroke-linejoin="round" d="M12 6v12m-3-2.818.879.659c1.171.879 3.07.879 4.242 0 1.172-.879 1.172-2.303 0-3.182C13.536 12.219 12.768 12 12 12c-.725 0-1.45-.22-2.003-.659-1.106-.879-1.106-2.303 0-3.182s2.9-.879 4.006 0l.415.33M21 12a9 9 0 1 1-18 0 9 9 0 0 1 18 0z"/></symbol><symbol xmlns="http://www.w3.org/2000/svg" id="error-label" fill="none" stroke="currentColor" stroke-width="1.5" viewBox="0 0 24 24"><path stroke-linecap="round" stroke-linejoin="round" d="m9.75 9.75 4.5 4.5m0-4.5-4.5 4.5M21 12a9 9 0 1 1-18 0 9 9 0 0 1 18 0z"/></symbol><symbol xmlns="http://www.w3.org/2000/svg" id="eye" fill="none" stroke="currentColor" stroke-width="1.5" viewBox="0 0 24 24"><path stroke-linecap="round" stroke-linejoin="round" d="M2.036 12.322a1.012 1.012 0 0 1 0-.639C3.423 7.51 7.36 4.5 12 4.5c4.638 0 8.573 3.007 9.963 7.178.07.207.07.431 0 .639C20.577 16.49 16.64 19.5 12 19.5c-4.638 0-8.573-3.007-9.963-7.178z"/><path stroke-linecap="round" stroke-linejoin="round" d="M15 12a3 3 0 1 1-6 0 3 3 0 0 1 6 0z"/></symbol><symbol xmlns="http://www.w3.org/2000/svg" id="facebook" viewBox="0 0 24 24"><path d="M9 8H6v4h3v12h5V12h3.642L18 8h-4V6.333C14 5.378 14.192 5 15.115 5H18V0h-3.808C10.596 0 9 1.583 9 4.615V8z"/></symbol><symbol xmlns="http://www.w3.org/2000/svg" id="footer-stub" fill-rule="evenodd" clip-rule="evenodd" viewBox="0 0 24 24"><path d="m22.672 15.226-2.432.811.841 2.515c.33 1.019-.209 2.127-1.23 2.456-1.15.325-2.148-.321-2.463-1.226l-.84-2.518-5.013 1.677.84 2.517c.391 1.203-.434 2.542-1.831 2.542-.88 0-1.601-.564-1.86-1.314l-.842-2.516-2.431.809c-1.135.328-2.145-.317-2.463-1.229-.329-1.018.211-2.127 1.231-2.456l2.432-.809-1.621-4.823-2.432.808C1.203 12.854 0 11.88 0 10.631a1.93 1.93 0 0 1 1.327-1.846l2.433-.809-.842-2.515c-.33-1.02.211-2.129 1.232-2.458 1.02-.329 2.13.209 2.461 1.229l.842 2.515 5.011-1.677-.839-2.517C11.222 1.315 12.109 0 13.468 0c.819 0 1.585.509 1.85 1.326l.841 2.517 2.431-.81c1.02-.33 2.131.211 2.461 1.229.332 1.018-.21 2.126-1.23 2.456l-2.433.809 1.622 4.823 2.433-.809c1.242-.401 2.557.484 2.557 1.838a1.93 1.93 0 0 1-1.328 1.847M13.68 8.798l-5.01 1.675 1.619 4.828 5.011-1.674-1.62-4.829z"/></symbol><symbol xmlns="http://www.w3.org/2000/svg" id="google-icon-logo" preserveAspectRatio="xMidYMid" viewBox="-3 0 262 262"><path fill="currentColor" d="M255.878 133.451c0-10.734-.871-18.567-2.756-26.69H130.55v48.448h71.947c-1.45 12.04-9.283 30.172-26.69 42.356l-.244 1.622 38.755 30.023 2.685.268c24.659-22.774 38.875-56.282 38.875-96.027"/><path fill="currentColor" d="M130.55 261.1c35.248 0 64.839-11.605 86.453-31.622l-41.196-31.913c-11.024 7.688-25.82 13.055-45.257 13.055-34.523 0-63.824-22.773-74.269-54.25l-1.531.13-40.298 31.187-.527 1.465C35.393 231.798 79.49 261.1 130.55 261.1"/><path fill="currentColor" d="M56.281 156.37c-2.756-8.123-4.351-16.827-4.351-25.82 0-8.994 1.595-17.697 4.206-25.82l-.073-1.73L15.26 71.312l-1.335.635C5.077 89.644 0 109.517 0 130.55s5.077 40.905 13.925 58.602l42.356-32.782"/><path fill="currentColor" d="M130.55 50.479c24.514 0 41.05 10.589 50.479 19.438l36.844-35.974C195.245 12.91 165.798 0 130.55 0 79.49 0 35.393 29.301 13.925 71.947l42.211 32.783c10.59-31.477 39.891-54.251 74.414-54.251"/></symbol><symbol xmlns="http://www.w3.org/2000/svg" id="hashtag" fill="none" stroke="currentColor" stroke-width="1.5" viewBox="0 0 24 24"><path stroke-linecap="round" stroke-linejoin="round" d="M5.25 8.25h15m-16.5 7.5h15m-1.8-13.5-3.9 19.5m-2.1-19.5-3.9 19.5"/></symbol><symbol xmlns="http://www.w3.org/2000/svg" id="heart" fill="none" stroke="currentColor" stroke-width="1.5" viewBox="0 0 24 24"><path stroke-linecap="round" stroke-linejoin="round" d="M21 8.25c0-2.485-2.099-4.5-4.688-4.5-1.935 0-3.597 1.126-4.312 2.733-.715-1.607-2.377-2.733-4.313-2.733C5.1 3.75 3 5.765 3 8.25c0 7.22 9 12 9 12s9-4.78 9-12z"/></symbol><symbol xmlns="http://www.w3.org/2000/svg" id="link" fill="none" stroke="currentColor" stroke-width="1.5" viewBox="0 0 24 24"><path stroke-linecap="round" stroke-linejoin="round" d="M13.19 8.688a4.5 4.5 0 0 1 1.242 7.244l-4.5 4.5a4.5 4.5 0 0 1-6.364-6.364l1.757-1.757m13.35-.622 1.757-1.757a4.5 4.5 0 0 0-6.364-6.364l-4.5 4.5a4.5 4.5 0 0 0 1.242 7.244"/></symbol><symbol xmlns="http://www.w3.org/2000/svg" id="list" fill="none" stroke="currentColor" stroke-width="1.5" viewBox="0 0 24 24"><path stroke-linecap="round" stroke-linejoin="round" d="M3.75 12h16.5m-16.5 3.75h16.5M3.75 19.5h16.5M5.625 4.5h12.75a1.875 1.875 0 0 1 0 3.75H5.625a1.875 1.875 0 0 1 0-3.75z"/></symbol><symbol xmlns="http://www.w3.org/2000/svg" id="menu-bars" fill="none" stroke="currentColor" stroke-width="1.5" viewBox="0 0 24 24"><path stroke-linecap="round" stroke-linejoin="round" d="M3.75 6.75h16.5M3.75 12H12m-8.25 5.25h16.5"/></symbol><symbol xmlns="http://www.w3.org/2000/svg" id="paper-airplane" fill="none" stroke="currentColor" stroke-width="1.5" viewBox="0 0 24 24"><path stroke-linecap="round" stroke-linejoin="round" d="M6 12 3.269 3.126A59.768 59.768 0 0 1 21.485 12 59.77 59.77 0 0 1 3.27 20.876L5.999 12zm0 0h7.5"/></symbol><symbol xmlns="http://www.w3.org/2000/svg" id="reply" fill="none" stroke="currentColor" stroke-width="1.5" viewBox="0 0 24 24"><path stroke-linecap="round" stroke-linejoin="round" d="m15 15 6-6m0 0-6-6m6 6H9a6 6 0 0 0 0 12h3"/></symbol><symbol xmlns="http://www.w3.org/2000/svg" id="share" fill="none" stroke="currentColor" stroke-width="1.5" viewBox="0 0 24 24"><path stroke-linecap="round" stroke-linejoin="round" d="M7.217 10.907a2.25 2.25 0 1 0 0 2.186m0-2.186c.18.324.283.696.283 1.093s-.103.77-.283 1.093m0-2.186 9.566-5.314m-9.566 7.5 9.566 5.314m0 0a2.25 2.25 0 1 0 3.935 2.186 2.25 2.25 0 0 0-3.935-2.186zm0-12.814a2.25 2.25 0 1 0 3.933-2.185 2.25 2.25 0 0 0-3.933 2.185z"/></symbol><symbol xmlns="http://www.w3.org/2000/svg" id="star" fill="none" stroke="currentColor" stroke-width="1.5" viewBox="0 0 24 24"><path stroke-linecap="round" stroke-linejoin="round" d="M11.48 3.499a.562.562 0 0 1 1.04 0l2.125 5.111a.563.563 0 0 0 .475.345l5.518.442c.499.04.701.663.321.988l-4.204 3.602a.563.563 0 0 0-.182.557l1.285 5.385a.562.562 0 0 1-.84.61l-4.725-2.885a.563.563 0 0 0-.586 0L6.982 20.54a.562.562 0 0 1-.84-.61l1.285-5.386a.562.562 0 0 0-.182-.557l-4.204-3.602a.563.563 0 0 1 .321-.988l5.518-.442a.563.563 0 0 0 .475-.345L11.48 3.5z"/></symbol><symbol xmlns="http://www.w3.org/2000/svg" id="three-dots" fill="none" stroke="currentColor" stroke-width="1.5" viewBox="0 0 24 24"><path stroke-linecap="round" stroke-linejoin="round" d="M6.75 12a.75.75 0 1 1-1.5 0 .75.75 0 0 1 1.5 0zm6 0a.75.75 0 1 1-1.5 0 .75.75 0 0 1 1.5 0zm6 0a.75.75 0 1 1-1.5 0 .75.75 0 0 1 1.5 0z"/></symbol><symbol xmlns="http://www.w3.org/2000/svg" id="twitter" viewBox="0 0 24 24"><path d="M24 4.557a9.83 9.83 0 0 1-2.828.775 4.932 4.932 0 0 0 2.165-2.724 9.864 9.864 0 0 1-3.127 1.195 4.916 4.916 0 0 0-3.594-1.555c-3.179 0-5.515 2.966-4.797 6.045A13.978 13.978 0 0 1 1.671 3.149a4.93 4.93 0 0 0 1.523 6.574 4.903 4.903 0 0 1-2.229-.616c-.054 2.281 1.581 4.415 3.949 4.89a4.935 4.935 0 0 1-2.224.084 4.928 4.928 0 0 0 4.6 3.419A9.9 9.9 0 0 1 0 19.54a13.94 13.94 0 0 0 7.548 2.212c9.142 0 14.307-7.721 13.995-14.646A10.025 10.025 0 0 0 24 4.557z"/></symbol><symbol xmlns="http://www.w3.org/2000/svg" id="upload-file" fill="none" stroke="currentColor" stroke-width="1.5" viewBox="0 0 24 24"><path stroke-linecap="round" stroke-linejoin="round" d="M12 16.5V9.75m0 0 3 3m-3-3-3 3M6.75 19.5a4.5 4.5 0 0 1-1.41-8.775 5.25 5.25 0 0 1 10.233-2.33 3 3 0 0 1 3.758 3.848A3.752 3.752 0 0 1 18 19.5H6.75z"/></symbol><symbol xmlns="http://www.w3.org/2000/svg" id="user" fill="none" stroke="currentColor" stroke-width="1.5" viewBox="0 0 24 24"><path stroke-linecap="round" stroke-linejoin="round" d="M17.982 18.725A7.488 7.488 0 0 0 12 15.75a7.488 7.488 0 0 0-5.982 2.975m11.963 0a9 9 0 1 0-11.963 0m11.963 0A8.966 8.966 0 0 1 12 21a8.966 8.966 0 0 1-5.982-2.275M15 9.75a3 3 0 1 1-6 0 3 3 0 0 1 6 0z"/></symbol><symbol xmlns="http://www.w3.org/2000/svg" id="x-circle" fill="none" stroke="currentColor" stroke-width="1.5" viewBox="0 0 24 24"><path stroke-linecap="round" stroke-linejoin="round" d="m9.75 9.75 4.5 4.5m0-4.5-4.5 4.5M21 12a9 9 0 1 1-18 0 9 9 0 0 1 18 0Z"/></symbol><symbol xmlns="http://www.w3.org/2000/svg" id="youtube" viewBox="0 0 24 24"><path d="M19.615 3.184c-3.604-.246-11.631-.245-15.23 0C.488 3.45.029 5.804 0 12c.029 6.185.484 8.549 4.385 8.816 3.6.245 11.626.246 15.23 0C23.512 20.55 23.971 18.196 24 12c-.029-6.185-.484-8.549-4.385-8.816zM9 16V8l8 3.993L9 16z"/></symbol></svg>